<?xml version="1.0" encoding="UTF-8" standalone="no"?>
<!DOCTYPE svg PUBLIC "-//W3C//DTD SVG 20010904//EN"
              "http://www.w3.org/TR/2001/REC-SVG-20010904/DTD/svg10.dtd">

<svg xmlns="http://www.w3.org/2000/svg"
     width="103" height="210"
     viewBox="0 0 1728 2304">
  <path id="Selection"
        fill="yellow" stroke="blue" stroke-width="1"
        d="M 821.00,948.00
           C 817.05,946.30 818.90,941.91 821.64,939.99
             823.41,938.75 826.88,939.00 829.00,939.00
             829.00,939.00 873.00,939.00 873.00,939.00
             867.84,950.96 867.74,945.78 863.96,950.31
             863.96,950.31 857.25,963.00 857.25,963.00
             857.25,963.00 800.25,1077.00 800.25,1077.00
             800.25,1077.00 722.25,1232.00 722.25,1232.00
             722.25,1232.00 693.25,1290.00 693.25,1290.00
             693.25,1290.00 677.00,1322.00 677.00,1322.00
             677.00,1322.00 1073.00,1322.00 1073.00,1322.00
             1073.00,1322.00 1059.25,1351.00 1059.25,1351.00
             1059.25,1351.00 1052.37,1363.01 1052.37,1363.01
             1052.37,1363.01 1045.00,1364.00 1045.00,1364.00
             1045.00,1364.00 945.00,1364.00 945.00,1364.00
             945.00,1364.00 572.00,1364.00 572.00,1364.00
             572.00,1364.00 587.25,1332.00 587.25,1332.00
             590.87,1324.76 590.71,1322.13 598.00,1322.00
             598.00,1322.00 625.00,1322.00 625.00,1322.00
             627.38,1322.00 630.71,1322.20 632.79,1320.98
             636.21,1318.96 642.15,1305.19 644.25,1301.00
             644.25,1301.00 678.25,1233.00 678.25,1233.00
             678.25,1233.00 774.25,1041.00 774.25,1041.00
             774.25,1041.00 806.25,977.00 806.25,977.00
             806.25,977.00 821.00,948.00 821.00,948.00 Z
           M 801.00,1156.00
           C 802.71,1150.02 807.80,1140.90 810.75,1135.00
             810.75,1135.00 827.75,1101.00 827.75,1101.00
             827.75,1101.00 880.75,995.00 880.75,995.00
             880.75,995.00 897.75,961.00 897.75,961.00
             904.64,947.22 903.49,947.02 913.00,947.00
             913.00,947.00 1156.00,947.00 1156.00,947.00
             1154.69,954.01 1146.77,967.95 1143.25,975.00
             1141.92,977.66 1138.22,985.76 1136.37,987.40
             1134.16,989.35 1130.76,988.99 1128.00,989.00
             1128.00,989.00 936.00,989.00 936.00,989.00
             933.73,989.00 930.34,988.78 928.39,990.02
             926.11,991.47 924.00,996.51 922.75,999.00
             922.75,999.00 913.25,1018.00 913.25,1018.00
             913.25,1018.00 879.75,1084.00 879.75,1084.00
             879.75,1084.00 865.00,1114.00 865.00,1114.00
             865.00,1114.00 1073.00,1114.00 1073.00,1114.00
             1073.00,1114.00 1059.25,1143.00 1059.25,1143.00
             1059.25,1143.00 1052.37,1155.01 1052.37,1155.01
             1052.37,1155.01 1045.00,1156.00 1045.00,1156.00
             1045.00,1156.00 801.00,1156.00 801.00,1156.00 Z" />
</svg>
