<?xml version="1.0" encoding="UTF-8" standalone="no"?>
<!DOCTYPE svg PUBLIC "-//W3C//DTD SVG 20010904//EN"
              "http://www.w3.org/TR/2001/REC-SVG-20010904/DTD/svg10.dtd">

<svg xmlns="http://www.w3.org/2000/svg"
     width="2.28667in" height="2.43in"
     viewBox="0 0 686 729">
  <path id="Selection"
        fill="none" stroke="black" stroke-width="1"
        d="M 304.00,169.00
           C 300.05,167.30 301.90,162.91 304.64,160.99
             306.41,159.75 309.88,160.00 312.00,160.00
             312.00,160.00 356.00,160.00 356.00,160.00
             350.84,171.96 350.74,166.78 346.96,171.31
             346.96,171.31 340.25,184.00 340.25,184.00
             340.25,184.00 283.25,298.00 283.25,298.00
             283.25,298.00 205.25,453.00 205.25,453.00
             205.25,453.00 176.25,511.00 176.25,511.00
             176.25,511.00 160.00,543.00 160.00,543.00
             160.00,543.00 556.00,543.00 556.00,543.00
             556.00,543.00 542.25,572.00 542.25,572.00
             542.25,572.00 535.37,584.01 535.37,584.01
             535.37,584.01 528.00,585.00 528.00,585.00
             528.00,585.00 428.00,585.00 428.00,585.00
             428.00,585.00 55.00,585.00 55.00,585.00
             55.00,585.00 70.25,553.00 70.25,553.00
             73.87,545.76 73.71,543.13 81.00,543.00
             81.00,543.00 108.00,543.00 108.00,543.00
             110.38,543.00 113.71,543.20 115.79,541.98
             119.21,539.96 125.15,526.19 127.25,522.00
             127.25,522.00 161.25,454.00 161.25,454.00
             161.25,454.00 257.25,262.00 257.25,262.00
             257.25,262.00 289.25,198.00 289.25,198.00
             289.25,198.00 304.00,169.00 304.00,169.00 Z
           M 284.00,377.00
           C 285.71,371.02 290.80,361.90 293.75,356.00
             293.75,356.00 310.75,322.00 310.75,322.00
             310.75,322.00 363.75,216.00 363.75,216.00
             363.75,216.00 380.75,182.00 380.75,182.00
             387.64,168.22 386.49,168.02 396.00,168.00
             396.00,168.00 639.00,168.00 639.00,168.00
             637.69,175.01 629.77,188.95 626.25,196.00
             624.92,198.66 621.22,206.76 619.37,208.40
             617.16,210.35 613.76,209.99 611.00,210.00
             611.00,210.00 419.00,210.00 419.00,210.00
             416.73,210.00 413.34,209.78 411.39,211.02
             409.11,212.47 407.00,217.51 405.75,220.00
             405.75,220.00 396.25,239.00 396.25,239.00
             396.25,239.00 362.75,305.00 362.75,305.00
             362.75,305.00 348.00,335.00 348.00,335.00
             348.00,335.00 556.00,335.00 556.00,335.00
             556.00,335.00 542.25,364.00 542.25,364.00
             542.25,364.00 535.37,376.01 535.37,376.01
             535.37,376.01 528.00,377.00 528.00,377.00
             528.00,377.00 284.00,377.00 284.00,377.00 Z" />
</svg>
